<svg width="900" height="620" viewBox="0 0 900 620" fill="none" xmlns="http://www.w3.org/2000/svg">
  <defs>
    <linearGradient id="g1" x1="0" y1="0" x2="1" y2="1"><stop stop-color="#23D6FF"/><stop offset="1" stop-color="#1A3158"/></linearGradient>
    <linearGradient id="g2" x1="0" y1="0" x2="0" y2="1"><stop stop-color="#F9A826"/><stop offset="1" stop-color="#3D2805"/></linearGradient>
  </defs>
  <rect width="900" height="620" fill="url(#g1)" opacity=".09"/>
  <path d="M0 465C130 420 190 570 330 520C460 473 560 360 700 420C770 450 830 485 900 450V620H0V465Z" fill="url(#g1)" opacity=".5"/>
  <g opacity=".65" stroke="#23D6FF" stroke-opacity=".35">
    <path d="M40 120H860"/><path d="M40 180H860"/><path d="M40 240H860"/><path d="M40 300H860"/>
  </g>
  <g fill="#0D1C33">
    <rect x="90" y="290" width="66" height="180"/><rect x="180" y="250" width="90" height="220"/>
    <rect x="295" y="220" width="75" height="250"/><rect x="400" y="270" width="88" height="200"/>
    <rect x="515" y="230" width="70" height="240"/><rect x="610" y="265" width="110" height="205"/>
  </g>
  <circle cx="725" cy="145" r="55" fill="url(#g2)" opacity=".7"/>
</svg>
